<mxfile host="Electron" modified="2023-10-24T04:09:03.078Z" agent="Mozilla/5.0 (Windows NT 10.0; Win64; x64) AppleWebKit/537.36 (KHTML, like Gecko) draw.io/22.0.2 Chrome/114.0.5735.289 Electron/25.8.4 Safari/537.36" etag="z2L0jlh6_K5AK6RSnuv8" version="22.0.2" type="device">
  <diagram name="Strona-1" id="-FcM3q7JEi1VK8q9Lea0">
    <mxGraphModel dx="1050" dy="629" grid="1" gridSize="10" guides="1" tooltips="1" connect="1" arrows="1" fold="1" page="1" pageScale="1" pageWidth="827" pageHeight="1169" math="0" shadow="0">
      <root>
        <mxCell id="0" />
        <mxCell id="1" parent="0" />
        <mxCell id="npV0G-f_STOrI8dF3Uar-6" style="edgeStyle=orthogonalEdgeStyle;rounded=0;orthogonalLoop=1;jettySize=auto;html=1;entryX=0;entryY=0.5;entryDx=0;entryDy=0;" edge="1" parent="1" source="npV0G-f_STOrI8dF3Uar-1" target="npV0G-f_STOrI8dF3Uar-5">
          <mxGeometry relative="1" as="geometry" />
        </mxCell>
        <mxCell id="npV0G-f_STOrI8dF3Uar-24" value="X2" style="edgeLabel;html=1;align=center;verticalAlign=middle;resizable=0;points=[];" vertex="1" connectable="0" parent="npV0G-f_STOrI8dF3Uar-6">
          <mxGeometry x="0.18" y="3" relative="1" as="geometry">
            <mxPoint x="-4" y="-17" as="offset" />
          </mxGeometry>
        </mxCell>
        <mxCell id="npV0G-f_STOrI8dF3Uar-1" value="1/s" style="rounded=0;whiteSpace=wrap;html=1;" vertex="1" parent="1">
          <mxGeometry x="240" y="120" width="40" height="40" as="geometry" />
        </mxCell>
        <mxCell id="npV0G-f_STOrI8dF3Uar-2" value="" style="endArrow=classic;html=1;rounded=0;" edge="1" parent="1">
          <mxGeometry width="50" height="50" relative="1" as="geometry">
            <mxPoint x="40" y="139.5" as="sourcePoint" />
            <mxPoint x="80" y="139.5" as="targetPoint" />
            <Array as="points" />
          </mxGeometry>
        </mxCell>
        <mxCell id="npV0G-f_STOrI8dF3Uar-3" value="X(s) = U(s)" style="edgeLabel;html=1;align=center;verticalAlign=middle;resizable=0;points=[];" vertex="1" connectable="0" parent="npV0G-f_STOrI8dF3Uar-2">
          <mxGeometry x="0.05" relative="1" as="geometry">
            <mxPoint x="-21" y="-19" as="offset" />
          </mxGeometry>
        </mxCell>
        <mxCell id="npV0G-f_STOrI8dF3Uar-10" style="edgeStyle=orthogonalEdgeStyle;rounded=0;orthogonalLoop=1;jettySize=auto;html=1;" edge="1" parent="1" source="npV0G-f_STOrI8dF3Uar-4">
          <mxGeometry relative="1" as="geometry">
            <mxPoint x="480" y="140" as="targetPoint" />
          </mxGeometry>
        </mxCell>
        <mxCell id="npV0G-f_STOrI8dF3Uar-11" value="Y(s) = X1" style="edgeLabel;html=1;align=center;verticalAlign=middle;resizable=0;points=[];" vertex="1" connectable="0" parent="npV0G-f_STOrI8dF3Uar-10">
          <mxGeometry x="0.4607" y="3" relative="1" as="geometry">
            <mxPoint x="11" y="-17" as="offset" />
          </mxGeometry>
        </mxCell>
        <mxCell id="npV0G-f_STOrI8dF3Uar-4" value="1/s" style="rounded=0;whiteSpace=wrap;html=1;" vertex="1" parent="1">
          <mxGeometry x="400" y="120" width="40" height="40" as="geometry" />
        </mxCell>
        <mxCell id="npV0G-f_STOrI8dF3Uar-7" style="edgeStyle=orthogonalEdgeStyle;rounded=0;orthogonalLoop=1;jettySize=auto;html=1;entryX=0;entryY=0.5;entryDx=0;entryDy=0;" edge="1" parent="1" source="npV0G-f_STOrI8dF3Uar-5" target="npV0G-f_STOrI8dF3Uar-4">
          <mxGeometry relative="1" as="geometry" />
        </mxCell>
        <mxCell id="npV0G-f_STOrI8dF3Uar-5" value="" style="ellipse;whiteSpace=wrap;html=1;aspect=fixed;" vertex="1" parent="1">
          <mxGeometry x="320" y="120" width="40" height="40" as="geometry" />
        </mxCell>
        <mxCell id="npV0G-f_STOrI8dF3Uar-12" value="Y(s) = 4 * X(s) - Y(s) * 2s^2&amp;nbsp; &amp;nbsp; &amp;nbsp;/ 2s^2" style="text;html=1;strokeColor=none;fillColor=none;align=center;verticalAlign=middle;whiteSpace=wrap;rounded=0;" vertex="1" parent="1">
          <mxGeometry x="40" y="10" width="220" height="30" as="geometry" />
        </mxCell>
        <mxCell id="npV0G-f_STOrI8dF3Uar-13" value="- Y(s)/2s^2 + 2*X(s)/s^2 = Y(s)" style="text;html=1;strokeColor=none;fillColor=none;align=center;verticalAlign=middle;whiteSpace=wrap;rounded=0;" vertex="1" parent="1">
          <mxGeometry x="20" y="40" width="220" height="30" as="geometry" />
        </mxCell>
        <mxCell id="npV0G-f_STOrI8dF3Uar-17" style="edgeStyle=orthogonalEdgeStyle;rounded=0;orthogonalLoop=1;jettySize=auto;html=1;entryX=0;entryY=0.5;entryDx=0;entryDy=0;" edge="1" parent="1" source="npV0G-f_STOrI8dF3Uar-15" target="npV0G-f_STOrI8dF3Uar-1">
          <mxGeometry relative="1" as="geometry" />
        </mxCell>
        <mxCell id="npV0G-f_STOrI8dF3Uar-15" value="" style="ellipse;whiteSpace=wrap;html=1;aspect=fixed;" vertex="1" parent="1">
          <mxGeometry x="160" y="120" width="40" height="40" as="geometry" />
        </mxCell>
        <mxCell id="npV0G-f_STOrI8dF3Uar-18" value="" style="endArrow=classic;html=1;rounded=0;entryX=1;entryY=0.5;entryDx=0;entryDy=0;" edge="1" parent="1" target="npV0G-f_STOrI8dF3Uar-20">
          <mxGeometry width="50" height="50" relative="1" as="geometry">
            <mxPoint x="460" y="140" as="sourcePoint" />
            <mxPoint x="400" y="200" as="targetPoint" />
            <Array as="points">
              <mxPoint x="460" y="200" />
            </Array>
          </mxGeometry>
        </mxCell>
        <mxCell id="npV0G-f_STOrI8dF3Uar-21" style="edgeStyle=orthogonalEdgeStyle;rounded=0;orthogonalLoop=1;jettySize=auto;html=1;entryX=0.5;entryY=1;entryDx=0;entryDy=0;" edge="1" parent="1" source="npV0G-f_STOrI8dF3Uar-20" target="npV0G-f_STOrI8dF3Uar-15">
          <mxGeometry relative="1" as="geometry" />
        </mxCell>
        <mxCell id="npV0G-f_STOrI8dF3Uar-20" value="-1/2" style="rounded=0;whiteSpace=wrap;html=1;" vertex="1" parent="1">
          <mxGeometry x="320" y="180" width="40" height="40" as="geometry" />
        </mxCell>
        <mxCell id="npV0G-f_STOrI8dF3Uar-23" style="edgeStyle=orthogonalEdgeStyle;rounded=0;orthogonalLoop=1;jettySize=auto;html=1;entryX=0;entryY=0.5;entryDx=0;entryDy=0;" edge="1" parent="1" source="npV0G-f_STOrI8dF3Uar-22" target="npV0G-f_STOrI8dF3Uar-15">
          <mxGeometry relative="1" as="geometry" />
        </mxCell>
        <mxCell id="npV0G-f_STOrI8dF3Uar-22" value="2" style="rounded=0;whiteSpace=wrap;html=1;" vertex="1" parent="1">
          <mxGeometry x="80" y="120" width="40" height="40" as="geometry" />
        </mxCell>
        <mxCell id="npV0G-f_STOrI8dF3Uar-27" value="&lt;div style=&quot;&quot;&gt;&lt;span style=&quot;background-color: initial;&quot;&gt;x1 = y&lt;/span&gt;&lt;/div&gt;&lt;div style=&quot;&quot;&gt;&lt;span style=&quot;background-color: initial;&quot;&gt;x1&#39; = 0x1 &lt;span style=&quot;white-space: pre;&quot;&gt;&#x9;&lt;/span&gt;&lt;span style=&quot;white-space: pre;&quot;&gt;&#x9;&lt;/span&gt;+1x2&amp;nbsp;&lt;span style=&quot;white-space: pre;&quot;&gt;&#x9;&lt;/span&gt;+0u&lt;/span&gt;&lt;/div&gt;&lt;div style=&quot;&quot;&gt;&lt;span style=&quot;background-color: initial;&quot;&gt;x2&#39; = -0.5x1 &lt;span style=&quot;white-space: pre;&quot;&gt;&#x9;&lt;/span&gt;+0x2&lt;span style=&quot;white-space: pre;&quot;&gt;&#x9;&lt;/span&gt;+2u&lt;/span&gt;&lt;/div&gt;" style="text;html=1;strokeColor=none;fillColor=none;align=left;verticalAlign=middle;whiteSpace=wrap;rounded=0;" vertex="1" parent="1">
          <mxGeometry x="40" y="240" width="240" height="40" as="geometry" />
        </mxCell>
        <mxCell id="npV0G-f_STOrI8dF3Uar-28" value="Y(s)s^3 + 7*Y(S)s^2 + 16 * Y(s)s + 12 = -s * X(s) + 6*X(s)" style="text;html=1;strokeColor=none;fillColor=none;align=left;verticalAlign=middle;whiteSpace=wrap;rounded=0;" vertex="1" parent="1">
          <mxGeometry x="40" y="360" width="400" height="40" as="geometry" />
        </mxCell>
        <mxCell id="npV0G-f_STOrI8dF3Uar-29" value="Y(s) + 7*Y(S) / s + 16 * Y(s) / s^2 + 12 * Y(s) / s^3 = - X(s) / s^2 + 6*X(s) / s^3" style="text;html=1;strokeColor=none;fillColor=none;align=left;verticalAlign=middle;whiteSpace=wrap;rounded=0;" vertex="1" parent="1">
          <mxGeometry x="40" y="400" width="440" height="40" as="geometry" />
        </mxCell>
        <mxCell id="npV0G-f_STOrI8dF3Uar-30" value="Y(s)= - X(s) / s^2 + 6*X(s) / s^3 -&amp;nbsp;7*Y(S) / s - 16 * Y(s) / s^2 - 12 * Y(s) / s^3&amp;nbsp;" style="text;html=1;strokeColor=none;fillColor=none;align=left;verticalAlign=middle;whiteSpace=wrap;rounded=0;" vertex="1" parent="1">
          <mxGeometry x="40" y="440" width="440" height="40" as="geometry" />
        </mxCell>
        <mxCell id="npV0G-f_STOrI8dF3Uar-31" value="Y(s)= - X(s) / s^2 + 6*X(s) / s^3 -&amp;nbsp;7*Y(S) / s - 16 * Y(s) / s^2 - 12 * Y(s) / s^3&amp;nbsp;" style="text;html=1;strokeColor=none;fillColor=none;align=left;verticalAlign=middle;whiteSpace=wrap;rounded=0;" vertex="1" parent="1">
          <mxGeometry x="40" y="480" width="440" height="40" as="geometry" />
        </mxCell>
        <mxCell id="npV0G-f_STOrI8dF3Uar-35" style="edgeStyle=orthogonalEdgeStyle;rounded=0;orthogonalLoop=1;jettySize=auto;html=1;startArrow=classic;startFill=1;endArrow=none;endFill=0;" edge="1" parent="1">
          <mxGeometry relative="1" as="geometry">
            <mxPoint x="140" y="779.5" as="targetPoint" />
            <mxPoint x="220" y="779.5" as="sourcePoint" />
            <Array as="points">
              <mxPoint x="190" y="780" />
              <mxPoint x="190" y="780" />
            </Array>
          </mxGeometry>
        </mxCell>
        <mxCell id="npV0G-f_STOrI8dF3Uar-36" value="U = X" style="edgeLabel;html=1;align=center;verticalAlign=middle;resizable=0;points=[];" vertex="1" connectable="0" parent="npV0G-f_STOrI8dF3Uar-35">
          <mxGeometry x="0.4297" y="-2" relative="1" as="geometry">
            <mxPoint x="-12" y="-18" as="offset" />
          </mxGeometry>
        </mxCell>
        <mxCell id="npV0G-f_STOrI8dF3Uar-41" style="edgeStyle=orthogonalEdgeStyle;rounded=0;orthogonalLoop=1;jettySize=auto;html=1;entryX=0;entryY=0.5;entryDx=0;entryDy=0;" edge="1" parent="1" source="npV0G-f_STOrI8dF3Uar-42" target="npV0G-f_STOrI8dF3Uar-43">
          <mxGeometry relative="1" as="geometry" />
        </mxCell>
        <mxCell id="npV0G-f_STOrI8dF3Uar-42" value="" style="ellipse;whiteSpace=wrap;html=1;aspect=fixed;" vertex="1" parent="1">
          <mxGeometry x="320" y="760" width="40" height="40" as="geometry" />
        </mxCell>
        <mxCell id="npV0G-f_STOrI8dF3Uar-48" style="edgeStyle=orthogonalEdgeStyle;rounded=0;orthogonalLoop=1;jettySize=auto;html=1;" edge="1" parent="1" source="npV0G-f_STOrI8dF3Uar-43" target="npV0G-f_STOrI8dF3Uar-45">
          <mxGeometry relative="1" as="geometry" />
        </mxCell>
        <mxCell id="npV0G-f_STOrI8dF3Uar-83" value="X3" style="edgeLabel;html=1;align=center;verticalAlign=middle;resizable=0;points=[];" vertex="1" connectable="0" parent="npV0G-f_STOrI8dF3Uar-48">
          <mxGeometry x="-0.14" y="-2" relative="1" as="geometry">
            <mxPoint y="-22" as="offset" />
          </mxGeometry>
        </mxCell>
        <mxCell id="npV0G-f_STOrI8dF3Uar-43" value="1/s" style="rounded=0;whiteSpace=wrap;html=1;" vertex="1" parent="1">
          <mxGeometry x="400" y="760" width="40" height="40" as="geometry" />
        </mxCell>
        <mxCell id="npV0G-f_STOrI8dF3Uar-44" style="edgeStyle=orthogonalEdgeStyle;rounded=0;orthogonalLoop=1;jettySize=auto;html=1;entryX=0;entryY=0.5;entryDx=0;entryDy=0;" edge="1" parent="1" source="npV0G-f_STOrI8dF3Uar-45" target="npV0G-f_STOrI8dF3Uar-46">
          <mxGeometry relative="1" as="geometry" />
        </mxCell>
        <mxCell id="npV0G-f_STOrI8dF3Uar-45" value="" style="ellipse;whiteSpace=wrap;html=1;aspect=fixed;" vertex="1" parent="1">
          <mxGeometry x="480" y="760" width="40" height="40" as="geometry" />
        </mxCell>
        <mxCell id="npV0G-f_STOrI8dF3Uar-65" style="edgeStyle=orthogonalEdgeStyle;rounded=0;orthogonalLoop=1;jettySize=auto;html=1;" edge="1" parent="1" source="npV0G-f_STOrI8dF3Uar-46" target="npV0G-f_STOrI8dF3Uar-63">
          <mxGeometry relative="1" as="geometry" />
        </mxCell>
        <mxCell id="npV0G-f_STOrI8dF3Uar-82" value="X2" style="edgeLabel;html=1;align=center;verticalAlign=middle;resizable=0;points=[];" vertex="1" connectable="0" parent="npV0G-f_STOrI8dF3Uar-65">
          <mxGeometry x="0.01" y="3" relative="1" as="geometry">
            <mxPoint y="-17" as="offset" />
          </mxGeometry>
        </mxCell>
        <mxCell id="npV0G-f_STOrI8dF3Uar-46" value="1/s" style="rounded=0;whiteSpace=wrap;html=1;" vertex="1" parent="1">
          <mxGeometry x="560" y="760" width="40" height="40" as="geometry" />
        </mxCell>
        <mxCell id="npV0G-f_STOrI8dF3Uar-58" style="edgeStyle=orthogonalEdgeStyle;rounded=0;orthogonalLoop=1;jettySize=auto;html=1;startArrow=classic;startFill=1;endArrow=none;endFill=0;" edge="1" parent="1" source="npV0G-f_STOrI8dF3Uar-52">
          <mxGeometry relative="1" as="geometry">
            <mxPoint x="180" y="780" as="targetPoint" />
            <Array as="points">
              <mxPoint x="180" y="660" />
            </Array>
          </mxGeometry>
        </mxCell>
        <mxCell id="npV0G-f_STOrI8dF3Uar-61" style="edgeStyle=orthogonalEdgeStyle;rounded=0;orthogonalLoop=1;jettySize=auto;html=1;" edge="1" parent="1" source="npV0G-f_STOrI8dF3Uar-52" target="npV0G-f_STOrI8dF3Uar-45">
          <mxGeometry relative="1" as="geometry" />
        </mxCell>
        <mxCell id="npV0G-f_STOrI8dF3Uar-52" value="-1" style="rounded=0;whiteSpace=wrap;html=1;" vertex="1" parent="1">
          <mxGeometry x="400" y="640" width="40" height="40" as="geometry" />
        </mxCell>
        <mxCell id="npV0G-f_STOrI8dF3Uar-71" style="edgeStyle=orthogonalEdgeStyle;rounded=0;orthogonalLoop=1;jettySize=auto;html=1;startArrow=classic;startFill=1;endArrow=none;endFill=0;" edge="1" parent="1" source="npV0G-f_STOrI8dF3Uar-54">
          <mxGeometry relative="1" as="geometry">
            <mxPoint x="800" y="780" as="targetPoint" />
          </mxGeometry>
        </mxCell>
        <mxCell id="npV0G-f_STOrI8dF3Uar-75" style="edgeStyle=orthogonalEdgeStyle;rounded=0;orthogonalLoop=1;jettySize=auto;html=1;entryX=0.5;entryY=1;entryDx=0;entryDy=0;" edge="1" parent="1" source="npV0G-f_STOrI8dF3Uar-54" target="npV0G-f_STOrI8dF3Uar-63">
          <mxGeometry relative="1" as="geometry" />
        </mxCell>
        <mxCell id="npV0G-f_STOrI8dF3Uar-54" value="-7" style="rounded=0;whiteSpace=wrap;html=1;" vertex="1" parent="1">
          <mxGeometry x="720" y="840" width="40" height="40" as="geometry" />
        </mxCell>
        <mxCell id="npV0G-f_STOrI8dF3Uar-72" style="edgeStyle=orthogonalEdgeStyle;rounded=0;orthogonalLoop=1;jettySize=auto;html=1;startArrow=classic;startFill=1;endArrow=none;endFill=0;" edge="1" parent="1" source="npV0G-f_STOrI8dF3Uar-55">
          <mxGeometry relative="1" as="geometry">
            <mxPoint x="800" y="860" as="targetPoint" />
          </mxGeometry>
        </mxCell>
        <mxCell id="npV0G-f_STOrI8dF3Uar-76" style="edgeStyle=orthogonalEdgeStyle;rounded=0;orthogonalLoop=1;jettySize=auto;html=1;" edge="1" parent="1" source="npV0G-f_STOrI8dF3Uar-55" target="npV0G-f_STOrI8dF3Uar-45">
          <mxGeometry relative="1" as="geometry" />
        </mxCell>
        <mxCell id="npV0G-f_STOrI8dF3Uar-55" value="-16" style="rounded=0;whiteSpace=wrap;html=1;" vertex="1" parent="1">
          <mxGeometry x="560" y="880" width="40" height="40" as="geometry" />
        </mxCell>
        <mxCell id="npV0G-f_STOrI8dF3Uar-73" style="edgeStyle=orthogonalEdgeStyle;rounded=0;orthogonalLoop=1;jettySize=auto;html=1;startArrow=classic;startFill=1;endArrow=none;endFill=0;" edge="1" parent="1" source="npV0G-f_STOrI8dF3Uar-56">
          <mxGeometry relative="1" as="geometry">
            <mxPoint x="800" y="900" as="targetPoint" />
          </mxGeometry>
        </mxCell>
        <mxCell id="npV0G-f_STOrI8dF3Uar-77" style="edgeStyle=orthogonalEdgeStyle;rounded=0;orthogonalLoop=1;jettySize=auto;html=1;entryX=0.5;entryY=1;entryDx=0;entryDy=0;" edge="1" parent="1" source="npV0G-f_STOrI8dF3Uar-56" target="npV0G-f_STOrI8dF3Uar-42">
          <mxGeometry relative="1" as="geometry" />
        </mxCell>
        <mxCell id="npV0G-f_STOrI8dF3Uar-56" value="-12" style="rounded=0;whiteSpace=wrap;html=1;" vertex="1" parent="1">
          <mxGeometry x="400" y="920" width="40" height="40" as="geometry" />
        </mxCell>
        <mxCell id="npV0G-f_STOrI8dF3Uar-62" style="edgeStyle=orthogonalEdgeStyle;rounded=0;orthogonalLoop=1;jettySize=auto;html=1;entryX=0;entryY=0.5;entryDx=0;entryDy=0;" edge="1" parent="1" source="npV0G-f_STOrI8dF3Uar-63" target="npV0G-f_STOrI8dF3Uar-64">
          <mxGeometry relative="1" as="geometry" />
        </mxCell>
        <mxCell id="npV0G-f_STOrI8dF3Uar-63" value="" style="ellipse;whiteSpace=wrap;html=1;aspect=fixed;" vertex="1" parent="1">
          <mxGeometry x="640" y="760" width="40" height="40" as="geometry" />
        </mxCell>
        <mxCell id="npV0G-f_STOrI8dF3Uar-68" style="edgeStyle=orthogonalEdgeStyle;rounded=0;orthogonalLoop=1;jettySize=auto;html=1;" edge="1" parent="1" source="npV0G-f_STOrI8dF3Uar-64">
          <mxGeometry relative="1" as="geometry">
            <mxPoint x="840" y="780" as="targetPoint" />
          </mxGeometry>
        </mxCell>
        <mxCell id="npV0G-f_STOrI8dF3Uar-69" value="Y = X1" style="edgeLabel;html=1;align=center;verticalAlign=middle;resizable=0;points=[];" vertex="1" connectable="0" parent="npV0G-f_STOrI8dF3Uar-68">
          <mxGeometry x="0.1145" y="-3" relative="1" as="geometry">
            <mxPoint x="22" y="-23" as="offset" />
          </mxGeometry>
        </mxCell>
        <mxCell id="npV0G-f_STOrI8dF3Uar-64" value="1/s" style="rounded=0;whiteSpace=wrap;html=1;" vertex="1" parent="1">
          <mxGeometry x="720" y="760" width="40" height="40" as="geometry" />
        </mxCell>
        <mxCell id="npV0G-f_STOrI8dF3Uar-70" style="edgeStyle=orthogonalEdgeStyle;rounded=0;orthogonalLoop=1;jettySize=auto;html=1;startArrow=classic;startFill=1;endArrow=none;endFill=0;" edge="1" parent="1" source="npV0G-f_STOrI8dF3Uar-66">
          <mxGeometry relative="1" as="geometry">
            <mxPoint x="180" y="660" as="targetPoint" />
            <Array as="points">
              <mxPoint x="180" y="620" />
            </Array>
          </mxGeometry>
        </mxCell>
        <mxCell id="npV0G-f_STOrI8dF3Uar-80" style="edgeStyle=orthogonalEdgeStyle;rounded=0;orthogonalLoop=1;jettySize=auto;html=1;" edge="1" parent="1" source="npV0G-f_STOrI8dF3Uar-66" target="npV0G-f_STOrI8dF3Uar-63">
          <mxGeometry relative="1" as="geometry" />
        </mxCell>
        <mxCell id="npV0G-f_STOrI8dF3Uar-66" value="6" style="rounded=0;whiteSpace=wrap;html=1;" vertex="1" parent="1">
          <mxGeometry x="560" y="600" width="40" height="40" as="geometry" />
        </mxCell>
        <mxCell id="npV0G-f_STOrI8dF3Uar-84" value="y = x1&lt;br&gt;" style="text;html=1;strokeColor=none;fillColor=none;align=left;verticalAlign=middle;whiteSpace=wrap;rounded=0;" vertex="1" parent="1">
          <mxGeometry x="120" y="1000" width="320" height="120" as="geometry" />
        </mxCell>
      </root>
    </mxGraphModel>
  </diagram>
</mxfile>
